Coordinates
version=1
nRows=43
nColumns=12
inDegrees=yes

Units are S.I. units (second, meters, Newtons, ...)
Angles are in degrees

endheader
time	SC_y	SC_z	SC_x	AC_y	AC_z	AC_x	GH_y	GH_z	GH_yy	EL_x	PS_y
       0.0              -16.45          -2.72          12.99          62.49         -16.46          6.952         -76.25          41.14          77.93          137.3          9.577
   0.04656              -16.45          -2.72          12.99          62.49         -16.46          6.951         -76.24          41.13          77.93          137.2          9.591
   0.09311              -16.45         -2.719           13.0          62.49         -16.45           6.95         -76.22          41.13          77.93          137.2          9.607
    0.1397              -16.44         -2.717           13.0          62.49         -16.45          6.949         -76.21          41.13          77.93          137.2          9.623
    0.1862              -16.44         -2.716          13.01          62.49         -16.44          6.947          -76.2          41.12          77.93          137.2          9.641
    0.2328              -16.44         -2.715          13.01          62.49         -16.44          6.946         -76.18          41.12          77.93          137.2           9.66
    0.2793              -16.44         -2.714          13.02          62.49         -16.43          6.945         -76.17          41.11          77.93          137.2           9.68
    0.3259              -16.44         -2.713          13.03          62.49         -16.43          6.943         -76.15          41.11          77.92          137.2          9.701
    0.3724              -16.44         -2.711          13.03          62.49         -16.42          6.942         -76.13           41.1          77.92          137.1          9.724
     0.419              -16.44          -2.71          13.04          62.49         -16.42           6.94         -76.11           41.1          77.92          137.1          9.748
    0.4656              -16.44         -2.708          13.05          62.49         -16.41          6.938         -76.09          41.09          77.92          137.1          9.775
    0.5121              -16.44         -2.706          13.05          62.49          -16.4          6.936         -76.07          41.08          77.92          137.1          9.803
    0.5587              -16.44         -2.704          13.06          62.49         -16.39          6.934         -76.04          41.08          77.92          137.0          9.833
    0.6052              -16.44         -2.702          13.07          62.49         -16.39          6.932         -76.01          41.07          77.92          137.0          9.866
    0.6518              -16.43           -2.7          13.08          62.49         -16.38          6.929         -75.98          41.06          77.91          137.0          9.902
    0.6983              -16.43         -2.697          13.09          62.49         -16.37          6.926         -75.95          41.05          77.91          136.9          9.941
    0.7449              -16.43         -2.695          13.11          62.49         -16.36          6.923         -75.92          41.04          77.91          136.9          9.983
    0.7915              -16.43         -2.692          13.12           62.5         -16.34           6.92         -75.88          41.03          77.91          136.9          10.03
     0.838              -16.43         -2.689          13.13           62.5         -16.33          6.917         -75.84          41.02           77.9          136.8          10.08
    0.8846              -16.43         -2.685          13.15           62.5         -16.32          6.913          -75.8          41.01           77.9          136.8          10.13
    0.9311              -16.42         -2.681          13.17           62.5          -16.3          6.909         -75.75          40.99           77.9          136.7          10.19
    0.9777              -16.42         -2.677          13.19           62.5         -16.28          6.904         -75.69          40.98          77.89          136.7          10.26
     1.024              -16.42         -2.673          13.21           62.5         -16.27          6.899         -75.63          40.96          77.89          136.6          10.33
     1.071              -16.42         -2.667          13.23           62.5         -16.25          6.893         -75.57          40.94          77.88          136.5          10.41
     1.117              -16.41         -2.662          13.26           62.5         -16.22          6.887         -75.49          40.92          77.88          136.4           10.5
     1.164              -16.41         -2.655          13.28           62.5          -16.2           6.88         -75.41           40.9          77.87          136.3           10.6
      1.21               -16.4         -2.648          13.32          62.51         -16.17          6.872         -75.32          40.87          77.87          136.2          10.72
     1.257               -16.4          -2.64          13.35          62.51         -16.14          6.863         -75.22          40.84          77.86          136.1          10.84
     1.304              -16.39         -2.631          13.39          62.51          -16.1          6.853          -75.1          40.81          77.85          136.0          10.99
      1.35              -16.39         -2.621          13.44          62.51         -16.06          6.841         -74.97          40.77          77.84          135.9          11.15
     1.397              -16.38         -2.609          13.49          62.52         -16.01          6.828         -74.82          40.73          77.83          135.7          11.33
     1.443              -16.37         -2.595          13.55          62.52         -15.95          6.813         -74.64          40.68          77.82          135.5          11.55
      1.49              -16.36          -2.58          13.62          62.52         -15.89          6.796         -74.44          40.62           77.8          135.3          11.79
     1.536              -16.35         -2.562          13.71          62.53         -15.82          6.776         -74.21          40.56          77.79          135.0          12.08
     1.583              -16.34         -2.541           13.8          62.53         -15.73          6.753         -73.94          40.48          77.77          134.7          12.41
     1.629              -16.33         -2.516          13.91          62.54         -15.63          6.725         -73.62          40.39          77.74          134.4          12.81
     1.676              -16.31         -2.486          14.05          62.54         -15.51          6.692         -73.24          40.28          77.72          134.0          13.27
     1.723              -16.29          -2.45          14.21          62.55         -15.37          6.653         -72.78          40.15          77.68          133.5          13.84
     1.769              -16.27         -2.407           14.4          62.56         -15.19          6.605         -72.23          39.99          77.64          132.9          14.51
     1.816              -16.23         -2.355          14.64          62.58         -14.98          6.547         -71.55           39.8           77.6          132.1          15.34
     1.862               -16.2          -2.29          14.93          62.59         -14.72          6.475         -70.72          39.56          77.54          131.2          16.37
     1.909              -16.15         -2.209           15.3          62.61         -14.39          6.385         -69.68          39.26          77.46          130.1          17.64
     1.955              -16.09         -2.107          15.76          62.63         -13.98          6.272         -68.37          38.89          77.37          128.6          19.25
